<?xml version="1.0" standalone="no"?>
<!DOCTYPE svg PUBLIC "-//W3C//DTD SVG 20010904//EN"
 "http://www.w3.org/TR/2001/REC-SVG-20010904/DTD/svg10.dtd">
<svg version="1.0" xmlns="http://www.w3.org/2000/svg"
 width="700.000000pt" height="700.000000pt" viewBox="0 0 700.000000 700.000000"
 preserveAspectRatio="xMidYMid meet">
<metadata>
Created by potrace 1.14, written by Peter Selinger 2001-2017
</metadata>
<g transform="translate(0.000000,700.000000) scale(0.100000,-0.100000)"
fill="#000000" stroke="none">
<path d="M3405 6981 c-9 -8 -189 -115 -388 -229 l-77 -44 0 -382 c0 -209 1
-424 0 -478 l0 -96 -232 -137 c-128 -76 -246 -145 -263 -155 -16 -9 -64 -37
-105 -62 l-75 -44 0 -209 0 -210 -79 47 c-43 26 -83 52 -90 57 -6 5 -31 20
-56 34 l-46 25 -79 -47 c-44 -26 -117 -69 -162 -96 l-83 -48 43 -26 c23 -15
49 -30 57 -34 8 -4 29 -16 45 -27 17 -10 60 -36 98 -57 65 -36 67 -38 67 -78
2 -160 -1 -530 -4 -532 -2 -2 -67 34 -144 79 -128 75 -142 86 -148 115 -3 18
-7 107 -8 198 -1 160 -5 181 -31 156 -6 -5 -30 -20 -55 -33 -25 -14 -120 -69
-213 -123 l-167 -98 0 -641 c0 -353 0 -653 0 -668 0 -24 -18 -37 -168 -126
-175 -104 -363 -215 -397 -235 -11 -7 -39 -24 -63 -39 -24 -16 -45 -28 -46
-28 -7 0 -291 -171 -301 -181 -6 -6 -10 -130 -10 -317 l0 -308 535 -313 c294
-172 542 -317 550 -322 8 -5 175 -102 370 -216 195 -113 420 -244 500 -291 80
-46 161 -93 180 -104 60 -35 681 -399 758 -444 40 -24 75 -44 77 -44 2 0 24
-13 48 -30 25 -16 47 -30 50 -30 3 0 46 -25 97 -55 67 -39 97 -52 109 -46 17
9 207 120 459 267 81 48 167 98 192 112 25 14 77 44 115 67 202 120 1601 935
1685 982 14 8 201 117 415 243 l390 228 3 309 2 309 -280 158 c-154 86 -290
163 -302 169 -13 7 -105 59 -206 116 l-183 103 2 697 c0 383 0 705 0 717 -1
15 -30 38 -113 89 -254 154 -523 318 -528 322 -3 2 -5 184 -5 403 0 250 -4
403 -10 409 -6 5 -86 55 -178 111 l-169 101 -119 -2 c-119 -2 -120 -2 -186
-41 -36 -21 -67 -38 -70 -38 -2 0 -19 -11 -37 -25 -18 -14 -36 -25 -40 -25 -5
0 -27 -13 -50 -28 -22 -15 -48 -31 -57 -34 -13 -5 -15 -24 -15 -112 1 -58 -2
-106 -7 -106 -7 0 -275 165 -287 177 -3 2 -5 230 -5 506 l-1 502 -170 105
c-94 58 -187 118 -207 133 -35 26 -96 57 -115 57 -4 0 -12 -4 -17 -9z"/>
</g>
</svg>
