<svg width="146" height="156" viewBox="0 0 146 156" fill="none" xmlns="http://www.w3.org/2000/svg">
<path d="M32.0422 46.3061L39.3453 42.0662L45.263 45.6509C45.5941 45.8732 46.0126 46.0795 46.2257 46.4183C45.4663 46.9788 44.5207 47.3314 43.6824 47.7668C42.0907 48.5933 40.4458 49.4706 38.9342 50.4333L32.0422 46.3061Z" fill="white"/>
<path d="M38.9342 50.4333C40.4458 49.4705 42.0907 48.5932 43.6824 47.7668C44.5207 47.3314 45.4663 46.9787 46.2257 46.4183C46.2175 46.7271 46.1538 46.9625 46.3174 47.2319C46.1457 47.6088 46.186 48.0066 46.1818 48.4131C46.1738 49.1904 46.1717 49.9677 46.1647 50.7448C46.1392 53.5596 45.9905 56.4256 46.1143 59.235L46.3172 59.4915C45.2798 60.0727 39.7043 63.3509 38.9783 63.3226C38.9032 62.2166 38.9768 61.0656 38.9842 59.9558C38.9981 57.8846 39.0034 55.8134 39.0053 53.7422C39.0063 52.6654 39.1141 51.4892 38.9342 50.4333Z" fill="#B9B9B9"/>
<path d="M70.8744 0L72.0457 0.330115C72.7987 0.6037 73.6085 1.45019 74.3126 1.89801C76.8255 3.4965 79.3981 5.03402 81.9441 6.58104L81.9633 28.9501L88.5916 33.0925L88.5902 28.2825C89.9923 27.4605 91.3901 26.6309 92.7775 25.7844C93.4483 25.3752 94.119 24.9653 94.794 24.5633C95.2566 24.2876 95.7698 23.9317 96.3176 23.8754L101.132 23.7518C101.684 23.8549 102.095 24.2028 102.558 24.4987C103.11 24.8512 103.673 25.1887 104.232 25.5306C105.897 26.5494 107.574 27.5413 109.259 28.5263L109.257 46.483L123.682 55.257L123.642 87.1018L145.149 99.1959L145.168 112.844L72.379 155.309L0.0029515 113.019L0 99.1535L21.9227 86.1541L21.8571 56.5074L32.1633 50.541L32.1718 53.981C32.25 55.5143 32.0969 57.1067 32.2747 58.6225L32.3222 58.7693C32.3859 58.9912 32.4004 59.1855 32.4177 59.4143C32.8856 59.7784 33.4336 60.0254 33.9384 60.3345C35.6016 61.3524 37.3465 62.2584 38.9783 63.3226C39.7043 63.3509 45.2798 60.0727 46.3172 59.4916L46.1143 59.235C45.9905 56.4256 46.1392 53.5596 46.1647 50.7448C46.1717 49.9677 46.1738 49.1904 46.1818 48.4131C46.186 48.0066 46.1457 47.6088 46.3174 47.2319C46.1538 46.9625 46.2175 46.7271 46.2257 46.4183C46.0126 46.0795 45.5941 45.8732 45.263 45.6509L45.237 36.3947L60.3321 27.5168L60.3058 6.30112C61.4362 5.72801 62.5111 5.03191 63.6033 4.39045C65.3231 3.38027 67.0553 2.403 68.7547 1.35738C69.4043 0.957656 70.373 0.561516 70.8744 0Z" fill="black"/>
<path d="M32.6721 73.4233L40.6789 78.1633L40.62 84.3124C40.1551 84.3586 39.2609 83.707 38.8241 83.4547C36.7668 82.2658 34.7072 81.0513 32.6854 79.8044L32.6721 73.4233Z" fill="white"/>
<path d="M52.8483 85.3523L61.0288 90.1813L61.009 96.4204C60.4928 96.4023 59.5147 95.6741 59.0334 95.3927C56.9582 94.1788 54.8948 92.9389 52.8337 91.7009L52.8483 85.3523Z" fill="white"/>
<path d="M42.4813 79.291L50.9732 84.1938V90.6877L42.4231 85.4541L42.4813 79.291Z" fill="white"/>
<path d="M91.6715 31.0236L91.6882 30.1784C92.3986 29.5222 93.3852 29.0676 94.207 28.5523C95.6812 27.6275 97.1325 26.584 98.7037 25.831L106.317 30.4828L106.31 31.6967C105.417 32.0385 104.606 32.6708 103.783 33.1566C102.277 34.0455 100.746 34.911 99.221 35.7649L91.6715 31.0236Z" fill="white"/>
<path d="M94.0456 29.905C94.6006 30.0662 95.1581 30.4724 95.6658 30.7619C96.8321 31.4267 97.991 32.1036 99.1486 32.7837L103.791 30.3147C104.072 30.6298 104.405 30.9011 104.721 31.1804L103.735 31.7216L99.1347 34.4986L92.9637 30.7228L94.0456 29.905Z" fill="black"/>
<path d="M71.1266 3.33533L78.891 8.17887L78.882 9.48015L71.4361 13.8067L63.2591 8.89733C63.2568 8.54021 63.1973 8.30607 63.4675 8.02995C64.1151 7.36824 65.0894 6.89743 65.8808 6.43526C66.8374 5.8767 67.7487 5.24727 68.7093 4.69651C69.4944 4.24637 70.3945 3.85887 71.1266 3.33533Z" fill="white"/>
<path d="M65.4117 7.42377C66.2204 7.65495 67.022 8.27152 67.7405 8.70879C69.0105 9.48188 70.2837 10.2429 71.5407 11.0382C73.3164 10.0531 75.1541 8.61641 77.0506 7.91736C77.2282 8.03443 77.3803 8.12893 77.5107 8.30021C77.7111 8.56262 77.7237 8.5854 77.6834 8.9132L77.2751 9.18931L71.57 12.5753C70.0279 11.636 68.4536 10.7528 66.9062 9.82297C66.2742 9.44349 65.3248 8.99715 64.8962 8.39914C65.0149 8.01629 65.1757 7.74629 65.4117 7.42377Z" fill="black"/>
<path d="M32.7082 88.3799C33.9187 88.8956 35.0949 89.7033 36.2321 90.3715C37.6924 91.2301 39.178 92.0426 40.6297 92.9159L40.6042 106.422L32.6993 101.824L32.7082 88.3799Z" fill="white"/>
<path d="M52.8495 100.086L61.0227 104.867L60.9983 118.51C59.6457 117.896 58.3653 116.987 57.0976 116.211C55.7069 115.361 54.2837 114.567 52.8689 113.757L52.8495 100.086Z" fill="white"/>
<path d="M42.4788 94.0461L51.0118 99.0307L50.9505 112.563C50.4982 112.589 43.4476 108.119 42.5113 107.547L42.4788 94.0461Z" fill="white"/>
<path d="M99.221 35.7649C100.746 34.911 102.277 34.0455 103.783 33.1566C104.606 32.6708 105.417 32.0384 106.31 31.6967C106.142 33.087 106.23 34.5484 106.226 35.9515C106.219 38.5201 106.216 41.0887 106.215 43.6573C106.214 44.7565 106.214 45.8557 106.213 46.9549C106.212 47.4 106.136 47.9693 106.278 48.3814C106.312 49.9607 106.278 51.5417 106.26 53.1212C106.25 53.8719 106.341 54.7944 106.166 55.5202C104.453 56.2163 102.699 57.4598 101.122 58.4421C100.635 58.7459 99.7361 59.5299 99.1862 59.5293C99.0906 58.7714 99.1472 57.9544 99.1467 57.1887C99.1461 55.7354 99.1469 54.2822 99.1484 52.8289C99.1537 47.1466 99.322 41.4446 99.221 35.7649Z" fill="#8C8B8B"/>
<path d="M91.6715 31.0236L99.221 35.7649C99.322 41.4446 99.1537 47.1466 99.1484 52.8289C99.1469 54.2822 99.1461 55.7354 99.1467 57.1887C99.1471 57.9544 99.0906 58.7714 99.1862 59.5293C97.6016 58.3177 95.8405 57.2813 94.1312 56.2562C93.389 55.8109 92.2288 55.3154 91.6314 54.7275C91.5184 54.6161 91.4743 54.4917 91.4205 54.3468C91.5992 53.7983 91.4937 53.1446 91.4825 52.57C91.4633 51.5995 91.4644 50.6277 91.4692 49.657C91.4871 45.9763 91.5565 42.2989 91.5477 38.6172C91.7437 37.8053 91.6508 36.7795 91.6553 35.9444C91.6643 34.3041 91.6679 32.6639 91.6715 31.0236Z" fill="#505050"/>
<path d="M71.4361 13.8067L78.882 9.48016L78.8486 30.8751C78.8543 32.0416 78.8602 33.2081 78.868 34.3746C78.8716 34.8808 78.7971 35.5476 78.9613 36.0214C78.5685 36.7717 72.7291 39.9786 71.5143 40.7527C71.4344 38.5197 71.5101 36.2616 71.5112 34.0255C71.5133 29.6055 71.5154 25.1855 71.5156 20.7655C71.5156 19.3141 71.515 17.8626 71.5145 16.4114C71.5143 15.5628 71.5888 14.641 71.4361 13.8067Z" fill="#8C8B8B"/>
<path d="M63.2591 8.89734L71.4361 13.8067C71.5888 14.641 71.5143 15.5628 71.5145 16.4114C71.515 17.8626 71.5156 19.3141 71.5156 20.7655C71.5154 25.1855 71.5133 29.6055 71.5112 34.0255C71.5101 36.2616 71.4344 38.5197 71.5143 40.7527C70.9026 40.5797 70.3637 40.1688 69.826 39.8385C68.8436 39.2348 67.87 38.6214 66.8942 38.0078C65.6079 37.1986 64.2555 36.488 63.045 35.5643L63.1049 35.4421L62.9448 34.9985L62.8958 34.8777L63.1789 34.6608C63.4118 32.9577 63.1331 31.0559 63.2215 29.3167C63.3926 28.8058 63.2945 28.0241 63.2947 27.478C63.2956 26.2609 63.2951 25.0435 63.2947 23.8264C63.2932 18.8669 63.4694 13.8476 63.2591 8.89734Z" fill="#505050"/>
<path d="M72.7694 88.363C73.3212 88.2481 73.7825 87.8956 74.2557 87.6022C75.0543 87.1071 75.8529 86.6124 76.6604 86.1317C80.0468 84.1158 83.4281 82.0923 86.8126 80.0728C88.3558 79.152 89.9075 78.2448 91.4581 77.3365C92.4541 76.7534 93.5248 76.2046 94.4179 75.472C94.3093 77.1751 94.3747 78.9096 94.3751 80.6178C94.3755 83.6534 94.3778 86.689 94.3789 89.7248C94.3795 91.0814 94.3779 92.4381 94.3711 93.7947C94.3677 94.4699 94.2762 95.2643 94.4124 95.9173C94.2376 96.2597 94.2874 96.3552 94.3365 96.7269L94.3144 112.014C94.2696 112.876 94.1977 113.821 94.3306 114.676C94.3108 114.862 94.33 115.26 94.1899 115.373L92.3976 116.565C91.0782 117.301 89.829 118.15 88.5292 118.919C85.4238 120.756 82.3008 122.564 79.2043 124.416C77.6935 125.319 76.2047 126.256 74.6807 127.138C74.116 127.464 73.4132 127.973 72.7791 128.093L72.6477 127.998C72.7622 126.969 72.6749 125.837 72.6764 124.798C72.6793 122.573 72.6808 120.349 72.6825 118.124C72.6884 110.912 72.699 103.699 72.6945 96.486C72.6935 94.689 72.6916 92.8921 72.6916 91.0953C72.6916 90.2461 72.5715 89.1772 72.7694 88.363Z" fill="#8C8B8B"/>
<path d="M88.221 86.1262L88.3824 86.2351L88.3857 97.3456L85.2926 99.2453L85.2599 87.9624L88.221 86.1262Z" fill="white"/>
<path d="M81.1917 90.3422L81.3099 90.4538L81.3461 101.735L78.4112 103.471L78.2785 103.343C78.1 101.999 78.1772 100.556 78.1772 99.1995C78.1774 96.8494 78.185 94.4994 78.1924 92.1493L81.1917 90.3422Z" fill="white"/>
<path d="M63.2215 29.3167C63.1331 31.0559 63.4118 32.9577 63.1789 34.6608L62.8958 34.8777L62.9448 34.9985L63.1049 35.4421L63.045 35.5643C64.2555 36.4879 65.6079 37.1986 66.8942 38.0078C67.87 38.6214 68.8436 39.2348 69.826 39.8385C70.3637 40.1688 70.9026 40.5797 71.5143 40.7527C72.7291 39.9785 78.5685 36.7717 78.9613 36.0214C78.7972 35.5476 78.8716 34.8808 78.868 34.3746C78.8602 33.2081 78.8543 32.0416 78.8486 30.8751L91.5477 38.6172C91.5566 42.2989 91.4872 45.9763 91.4692 49.657C91.4644 50.6277 91.4633 51.5995 91.4825 52.57C91.4937 53.1446 91.5992 53.7983 91.4205 54.3468C91.4743 54.4917 91.5184 54.6161 91.6314 54.7275C92.2288 55.3154 93.389 55.8109 94.1313 56.2562C95.8405 57.2813 97.6016 58.3177 99.1862 59.5293C99.7361 59.5299 100.635 58.7459 101.122 58.4421C102.699 57.4598 104.453 56.2163 106.166 55.5202C106.341 54.7944 106.25 53.8719 106.26 53.1212C106.278 51.5417 106.312 49.9607 106.278 48.3814C107.977 49.3429 109.609 50.4134 111.275 51.4297C113.095 52.5401 114.939 53.6045 116.753 54.7267C118.014 55.5071 119.543 56.2119 120.659 57.1784L120.662 57.4807L99.3216 69.9682C97.9579 68.8143 96.3043 67.8685 94.8006 66.9037C91.296 64.6546 87.7293 62.5288 84.1778 60.3581C78.3768 56.8124 72.6732 53.1094 66.8482 49.603C60.5992 45.8413 54.1797 42.263 48.0821 38.2638L63.2215 29.3167Z" fill="white"/>
<path d="M91.4205 54.3467C91.4743 54.4917 91.5184 54.6161 91.6314 54.7275C92.2288 55.3154 93.389 55.8109 94.1312 56.2561C95.8405 57.2813 97.6016 58.3176 99.1862 59.5293C99.7361 59.5299 100.635 58.7458 101.122 58.4421C102.699 57.4598 104.453 56.2163 106.166 55.5202C106.399 55.8368 106.808 56.0861 107.12 56.3266C106.328 57.1328 105.105 57.6477 104.131 58.2147C102.456 59.1892 100.81 60.2104 99.0995 61.1223C97.4166 60.1834 95.8006 59.1114 94.1574 58.104C92.7614 57.2484 91.2039 56.4392 89.9382 55.4019C90.3793 54.9608 90.8898 54.6661 91.4205 54.3467Z" fill="black"/>
<path d="M60.6053 36.1753C61.166 35.8201 61.8675 35.3204 62.4959 35.1299L63.045 35.5643C64.2556 36.488 65.6079 37.1986 66.8942 38.0078C67.87 38.6214 68.8437 39.2348 69.826 39.8385C70.3637 40.1688 70.9026 40.5797 71.5143 40.7527C72.7291 39.9786 78.5685 36.7717 78.9613 36.0214C79.577 36.106 80.1343 36.4975 80.6389 36.8388L71.0874 42.4132C69.0839 41.1507 67.015 39.9853 64.9943 38.7496C63.558 37.8713 62.1612 36.8259 60.6053 36.1753Z" fill="black"/>
<path d="M88.2896 56.2845C89 56.6112 89.7144 57.235 90.4057 57.644C93.267 59.337 96.081 61.0981 98.928 62.8143C100.4 62.077 101.829 61.2023 103.26 60.387C105.228 59.2655 107.568 58.1663 109.104 56.4899L109.067 58.4441L108.6 58.8586L98.8567 64.5916L87.0701 57.5503C87.064 57.2337 87.087 57.0177 87.1756 56.7137L88.2896 56.2845Z" fill="black"/>
<path d="M59.0294 37.0634C59.423 37.0936 59.7946 37.3602 60.1315 37.5551C60.7869 37.9342 61.4349 38.3259 62.0871 38.7102C65.1681 40.5259 68.268 42.3337 71.2068 44.3745L82.6799 37.7036L82.8733 39.1456L81.8385 39.7351L71.0912 46.108L57.7479 38.0097C58.1344 37.6477 58.594 37.3634 59.0294 37.0634Z" fill="black"/>
<path d="M120.662 57.4807C120.449 58.3911 120.544 59.4603 120.537 60.3966C120.525 62.0635 120.517 63.7303 120.509 65.3971C120.474 73.2716 120.54 81.1455 120.539 89.02L121.429 89.5619L121.431 99.0556L103.664 109.587L103.655 112.642C102.734 113.229 101.784 113.755 100.85 114.318C100.378 114.603 99.7831 115.064 99.2435 115.152L94.3143 112.014L94.3365 96.7268C94.2873 96.3552 94.2376 96.2596 94.4124 95.9173C95.5211 95.2106 96.6416 94.3044 97.8442 93.7872C98.4407 93.5307 98.7525 93.5157 99.3536 93.7537L99.3216 69.9681L120.662 57.4807Z" fill="#8C8B8B"/>
<path d="M116.121 67.9978C116.375 68.5083 116.194 77.4459 116.162 78.9193L113.201 80.7551C112.903 80.3674 113.066 78.9258 113.063 78.3753C113.046 75.5165 113.031 72.6576 113.029 69.7988L116.121 67.9978Z" fill="white"/>
<path d="M94.4124 95.9173C95.5211 95.2106 96.6416 94.3044 97.8442 93.7872C98.4407 93.5307 98.7525 93.5157 99.3536 93.7537C99.7983 94.2686 100.448 94.6219 101.018 94.9879C102.14 95.7082 103.283 96.3965 104.426 97.0819L99.2594 100.025L94.3365 96.7269C94.2873 96.3552 94.2376 96.2596 94.4124 95.9173Z" fill="white"/>
<path d="M109.448 71.8898C109.734 72.2297 109.603 73.8016 109.604 74.296C109.611 77.0551 109.611 79.8141 109.613 82.573L106.416 84.4218C106.148 84.051 106.277 74.9191 106.283 73.6478L109.448 71.8898Z" fill="white"/>
<path d="M94.3365 96.7269L99.2594 100.026L99.2435 115.152L94.3144 112.014L94.3365 96.7269Z" fill="black"/>
<path d="M46.3174 47.2319L53.5524 51.5881L55.9946 50.2599C62.4727 54.4461 69.2297 58.2152 75.7457 62.3426C76.5695 62.8642 77.3879 63.3956 78.2264 63.8934C78.6436 64.1408 79.2315 64.3779 79.5755 64.7068C79.531 65.1877 79.493 65.6448 79.5321 66.1285C82.6278 67.9586 85.675 69.8496 88.7408 71.7283C90.0226 72.5138 91.318 73.278 92.5878 74.0823C93.1947 74.4666 93.9897 74.8866 94.4179 75.472C93.5248 76.2046 92.4541 76.7534 91.4581 77.3365C89.9075 78.2448 88.3558 79.152 86.8126 80.0727C83.4281 82.0922 80.0468 84.1158 76.6604 86.1317C75.8529 86.6124 75.0543 87.1071 74.2557 87.6021C73.7825 87.8956 73.3212 88.248 72.7694 88.363C72.5013 88.0312 72.0138 87.7962 71.6495 87.5711C70.7383 87.0081 69.8184 86.4599 68.8987 85.9113C66.3126 84.3685 63.7328 82.8151 61.1455 81.274C58.2989 79.5789 55.4896 77.825 52.6392 76.1354C49.5829 74.3236 46.4849 72.575 43.443 70.7409C41.4427 69.5347 39.4919 68.2484 37.4855 67.0507C32.9396 64.3366 28.2639 61.7819 23.8463 58.8611L32.1717 53.981C32.25 55.5143 32.0969 57.1067 32.2747 58.6225L32.3221 58.7693C32.3858 58.9912 32.4004 59.1855 32.4177 59.4144C32.8856 59.7784 33.4336 60.0254 33.9383 60.3345C35.6016 61.3525 37.3465 62.2584 38.9783 63.3226C39.7043 63.3509 45.2798 60.0727 46.3172 59.4916L46.1143 59.2351C45.9905 56.4256 46.1392 53.5596 46.1647 50.7448C46.1717 49.9677 46.1738 49.1904 46.1818 48.4131C46.186 48.0066 46.1457 47.6088 46.3174 47.2319Z" fill="white"/>
<path d="M47.5752 67.3199C47.9566 67.8325 48.5776 68.1485 49.1088 68.4887C50.3862 69.3065 51.7081 70.0513 53.0206 70.8109C53.7584 71.2378 54.6302 71.8624 55.424 72.155L55.5366 72.171C56.8409 71.5549 58.0953 70.6696 59.3327 69.9229C59.9609 69.544 60.8774 69.1519 61.3663 68.6182C61.6138 68.5393 61.6391 68.4902 61.8977 68.5691L61.9042 70.076L55.3439 73.8454L45.7709 68.3733L47.5752 67.3199Z" fill="black"/>
<path d="M61.5328 77.1438C62.0089 76.8337 62.5759 76.4758 63.1443 76.3961C63.8113 77.2727 65.4935 77.9688 66.4744 78.559C68.2556 79.6308 70.0215 80.7599 71.8299 81.7823L72.0567 81.6815C73.4389 80.8236 74.845 80.0025 76.2387 79.1631C77.2466 78.5563 78.2772 77.8644 79.3515 77.3866C79.6276 77.8654 80.0371 78.0878 80.491 78.3709L71.6981 83.5424C69.3084 81.9954 66.8147 80.6167 64.4017 79.1049C63.4268 78.494 62.3755 77.934 61.5328 77.1438Z" fill="black"/>
<path d="M32.2747 58.6225L32.3222 58.7693C32.3859 58.9912 32.4004 59.1855 32.4177 59.4144C32.8856 59.7784 33.4336 60.0254 33.9384 60.3345C35.6016 61.3525 37.3465 62.2584 38.9783 63.3226C39.7043 63.3509 45.2798 60.0727 46.3172 59.4916C46.7891 59.8082 47.1412 60.1524 47.5261 60.5654C46.5828 61.2923 45.4739 61.872 44.4416 62.4639C42.6824 63.4726 40.902 64.4425 39.147 65.4575L29.9434 60.0206C30.7597 59.5903 31.5333 59.1771 32.2747 58.6225Z" fill="black"/>
<path d="M55.501 59.9936L61.4165 56.4832C61.3946 59.1884 61.3769 61.8939 61.3427 64.599C61.3271 65.8456 61.1223 67.4175 61.3663 68.6182C60.8774 69.1518 59.9609 69.544 59.3327 69.9228C58.0953 70.6695 56.8409 71.5548 55.5367 72.171C55.3772 70.9115 55.4921 69.4995 55.4902 68.2195C55.4858 65.4775 55.4881 62.7358 55.501 59.9936Z" fill="#8C8B8B"/>
<path d="M71.9406 69.4205L79.5755 64.7067C79.531 65.1877 79.493 65.6448 79.5321 66.1284C79.3129 67.1479 79.4114 68.3414 79.4101 69.3855C79.408 71.2487 79.4104 73.1122 79.4101 74.9754C79.4101 75.7491 79.5015 76.6312 79.3515 77.3866C78.2772 77.8644 77.2466 78.5562 76.2387 79.1631C74.845 80.0024 73.4389 80.8236 72.0567 81.6815C72.0902 78.7077 72.0721 75.7326 72.0609 72.7586C72.0583 72.0267 72.055 71.2947 72.0522 70.5628C72.051 70.1797 72.0999 69.7764 71.9406 69.4205Z" fill="#8C8B8B"/>
<path d="M47.5782 54.8545L55.501 59.9936C55.4881 62.7358 55.4858 65.4775 55.4903 68.2195C55.4922 69.4995 55.3772 70.9115 55.5367 72.171L55.424 72.155C54.6303 71.8624 53.7585 71.2378 53.0206 70.8109C51.7081 70.0513 50.3862 69.3065 49.1088 68.4887C48.5776 68.1484 47.9566 67.8324 47.5753 67.3198L47.5782 54.8545Z" fill="#505050"/>
<path d="M63.2802 64.0261L71.9406 69.4206C72.0999 69.7764 72.051 70.1797 72.0522 70.5628C72.055 71.2948 72.0583 72.0267 72.0609 72.7587C72.0721 75.7327 72.0902 78.7077 72.0567 81.6815L71.8299 81.7824C70.0215 80.7599 68.2556 79.6308 66.4744 78.559C65.4935 77.9688 63.8113 77.2727 63.1443 76.3961C63.2928 76.1564 63.2346 75.7993 63.235 75.516C63.2359 74.8617 63.2369 74.2074 63.2393 73.553C63.2502 70.3774 63.266 67.2017 63.2802 64.0261Z" fill="#505050"/>
<path d="M121.429 89.562L141.122 100.524C123.375 110.824 105.771 121.378 87.958 131.563C84.3539 133.623 80.7903 135.783 77.2202 137.905C76.2191 138.5 75.2165 139.093 74.212 139.682C73.6165 140.031 73.0099 140.448 72.3661 140.698C71.0486 140.115 69.8239 139.246 68.5804 138.517C66.2896 137.175 63.9856 135.855 61.6973 134.508C54.4316 130.23 47.1523 125.969 39.8693 121.722C31.2677 116.706 22.6608 111.705 14.0826 106.649C12.0903 105.474 10.1087 104.281 8.10316 103.129C6.71266 102.331 5.12915 101.571 3.8728 100.582L22.0335 89.8919L22.0797 98.5395L72.6477 127.998L72.7791 128.093C73.4132 127.973 74.116 127.464 74.6807 127.138C76.2047 126.256 77.6935 125.319 79.2043 124.416C82.3008 122.564 85.4238 120.756 88.5292 118.919C89.829 118.15 91.0782 117.301 92.3976 116.565L94.1899 115.372C94.33 115.26 94.3108 114.862 94.3306 114.676C94.1977 113.821 94.2696 112.876 94.3144 112.014L99.2436 115.152C99.7831 115.064 100.378 114.603 100.85 114.318C101.784 113.755 102.734 113.229 103.655 112.642L103.664 109.588L121.431 99.0556L121.429 89.562Z" fill="white"/>
<path d="M94.3306 114.676L99.275 118.202C97.582 117.826 95.9103 117.342 94.2169 116.953C93.6153 116.814 93.0118 116.627 92.3976 116.565L94.1899 115.372C94.33 115.26 94.3108 114.862 94.3306 114.676Z" fill="#B9B9B9"/>
</svg>
