
<!DOCTYPE svg PUBLIC "-//W3C//DTD SVG 1.1//EN" "http://www.w3.org/Graphics/SVG/1.1/DTD/svg11.dtd">
<!-- Created with Vectornator (http://vectornator.io/) -->
<svg height="100%" stroke-miterlimit="10" style="fill-rule:nonzero;clip-rule:evenodd;stroke-linecap:round;stroke-linejoin:round;" version="1.1" viewBox="167.432 168.054 269.531 266.857" width="100%" xml:space="preserve" xmlns="http://www.w3.org/2000/svg" xmlns:vectornator="http://vectornator.io" xmlns:xlink="http://www.w3.org/1999/xlink">
<defs/>
<clipPath id="ArtboardFrame">
<rect height="266.857" width="269.531" x="167.432" y="168.054"/>
</clipPath>
<g clip-path="url(#ArtboardFrame)" id="Layer" vectornator:layerName="Layer">
<g opacity="1" vectornator:layerName="Group 1">
<path d="M168.164 168.164C167.888 168.163 167.579 168.474 167.578 168.75C167.383 257.226 167.383 345.703 167.578 434.18C167.579 434.456 167.888 434.765 168.164 434.766C257.519 434.961 346.875 434.961 436.23 434.766C436.507 434.765 436.816 434.456 436.816 434.18C437.011 345.703 437.011 257.226 436.816 168.75C436.816 168.474 436.507 168.169 436.23 168.164C425.392 167.972 414.55 168.071 403.711 168.164C402.051 168.178 400.391 168.164 398.73 168.164C363.379 168.164 328.027 168.457 292.676 168.457C251.107 168.457 209.818 168.25 168.164 168.164Z" fill="#181915" fill-rule="nonzero" opacity="1" stroke="none"/>
<path d="M191.309 190.723C191.032 190.723 190.724 191.032 190.723 191.309C190.528 235.156 190.82 279.004 190.723 322.852C190.677 343.359 190.723 363.867 190.723 384.375C190.723 393.514 189.998 403.084 190.723 412.5C190.744 412.775 191.032 413.085 191.309 413.086C265.332 413.281 339.356 413.183 413.379 413.086C413.627 413.086 414.55 412.421 414.551 412.207C414.746 338.574 414.746 264.941 414.551 191.309C414.55 191.032 414.241 190.723 413.965 190.723C339.746 190.528 265.527 190.528 191.309 190.723Z" fill="#f8f9f4" fill-rule="nonzero" opacity="1" stroke="none"/>
<path d="M241.699 334.863C232.286 330.157 223.18 324.455 214.16 319.043C212.273 317.911 206.537 313.773 204.785 314.941C204.883 315.137 205.077 315.309 205.078 315.527C205.174 329.004 205.078 342.48 205.078 355.957C205.078 356.152 205.078 356.348 205.078 356.543C205.078 370.41 204.886 384.279 205.078 398.145C205.082 398.421 205.388 398.729 205.664 398.73C233.691 398.924 261.719 398.924 289.746 398.73C290.022 398.729 290.326 398.421 290.332 398.145C290.692 381.937 290.625 365.723 290.625 349.512C290.625 347.264 290.741 344.984 290.332 342.773C289.923 340.564 278.133 336.471 278.027 334.57C276.767 311.879 276.299 289.028 275.391 266.309C275.086 258.689 275.718 250.412 274.512 242.871C274.446 242.462 274.047 242.005 273.633 241.992C264.653 241.709 255.66 241.709 246.68 241.992C244.562 242.059 245.809 250.848 245.801 251.367C245.692 258.421 245.473 262.524 245.215 269.238C244.565 286.131 243.744 303.096 243.164 319.922C243.034 323.699 244.354 332.209 241.699 334.863Z" fill="#181915" fill-rule="nonzero" opacity="1" stroke="none"/>
<path d="M359.473 262.793C358.279 262.648 358.87 263.119 358.887 264.551C358.98 272.559 359.084 280.566 359.18 288.574C359.182 288.77 359.18 288.965 359.18 289.16C359.18 325.488 358.985 361.817 359.18 398.145C359.181 398.421 359.49 398.72 359.766 398.73C364.645 398.918 369.531 398.73 374.414 398.73C381.445 398.73 388.477 398.645 395.508 398.73C396.878 398.747 399.585 399.808 399.609 398.438C399.827 386.125 399.609 373.199 399.609 360.645C399.609 336.133 399.706 311.621 399.609 287.109C399.609 286.891 399.447 286.698 399.316 286.523C397.151 283.636 391.559 281.635 388.477 279.785C383.149 276.588 377.69 273.606 372.363 270.41C368.296 267.97 364.189 263.367 359.473 262.793Z" fill="#181915" fill-rule="nonzero" opacity="1" stroke="none"/>
<path d="M304.688 277.148C304.421 277.077 304.106 277.458 304.102 277.734C303.909 290.526 304.038 303.32 304.102 316.113C304.135 322.852 304.3 329.59 304.395 336.328C304.684 356.865 304.01 379.276 304.102 398.145C304.109 399.638 309.65 399.023 316.113 399.023C320.353 399.023 324.703 399.023 329.004 399.023C334.375 399.023 339.749 399.212 345.117 399.023C345.393 399.014 345.701 398.714 345.703 398.438C345.897 374.513 345.703 350.586 345.703 326.66C345.703 323.145 345.661 319.629 345.703 316.113C345.761 311.327 346.35 306.531 345.996 301.758C345.929 300.851 337.321 296.084 336.035 295.312C329.244 291.238 322.321 287.377 315.527 283.301C312.067 281.224 308.608 278.203 304.688 277.148Z" fill="#181915" fill-rule="nonzero" opacity="1" stroke="none"/>
<path d="M270.41 205.078C262.962 205.512 256.607 211.856 255.176 219.727C254.777 221.918 253.745 229.093 255.176 229.102C288.183 229.296 321.192 229.198 354.199 229.102C361.433 229.081 367.92 221.63 370.02 215.332C370.734 213.188 372.251 205.088 370.605 205.078C337.208 204.884 303.752 203.135 270.41 205.078Z" fill="#181915" fill-rule="nonzero" opacity="1" stroke="none"/>
<path d="M222.656 359.766C222.372 359.761 221.217 360.1 221.191 360.645C221.005 364.644 221.005 368.657 221.191 372.656C221.204 372.932 221.501 373.228 221.777 373.242C225.386 373.427 229.014 373.512 232.617 373.242C233.03 373.211 233.467 372.777 233.496 372.363C233.768 368.467 233.682 364.546 233.496 360.645C233.433 359.318 228.919 359.873 222.656 359.766Z" fill="#f8f9f4" fill-rule="nonzero" opacity="1" stroke="none"/>
<path d="M265.723 360.059C265.447 360.073 265.15 360.369 265.137 360.645C264.951 364.644 264.951 368.657 265.137 372.656C265.15 372.932 265.447 373.228 265.723 373.242C269.331 373.427 272.954 373.427 276.562 373.242C276.838 373.228 277.136 372.932 277.148 372.656C277.334 368.657 277.334 364.644 277.148 360.645C277.136 360.369 276.838 360.073 276.562 360.059C272.954 359.874 269.331 359.874 265.723 360.059Z" fill="#e4e8e2" fill-rule="nonzero" opacity="1" stroke="none"/>
<path d="M243.75 360.059C240.08 361.672 243.066 368.063 243.164 372.07C243.17 372.327 243.822 373.231 244.043 373.242C247.554 373.427 251.079 373.427 254.59 373.242C254.866 373.228 255.163 372.932 255.176 372.656C255.362 368.657 255.362 364.644 255.176 360.645C255.163 360.369 254.866 360.073 254.59 360.059C250.981 359.874 247.058 358.604 243.75 360.059Z" fill="#e4e8e2" fill-rule="nonzero" opacity="1" stroke="none"/>
</g>
</g>
</svg>
